Nature.Calls.2012.HDRiP.AC3-2.0.XviD-AXED
 
http://www.imdb.com/title/tt1493157/

PLOT INFO:
Polar-opposite brothers Randy and Kirk never saw eye-to-eye, but their rivalry is taken to a new level when Randy hijacks Kirk's son's sleepover, taking the boys on a Scout Trip to remember

MEDIAINFO:
General
Complete name: Nature.Calls.2012.HDRiP.AC3-2.0.XviD-AXED.avi
Format: AVI
Format/Info: Audio Video Interleave
File size: 1.33 GiB
Duration: 1h 19mn
Overall bit rate: 2 398 Kbps

Video
ID: 0
Format: MPEG-4 Visual
Format profile: Advanced Simple@L5
Format settings, BVOP: 2
Format settings, QPel: No
Format settings, GMC: No warppoints
Format settings, Matrix: Default (H.263)
Muxing mode: Packed bitstream
Codec ID: XVID
Codec ID/Hint: XviD
Duration: 1h 19mn
Bit rate: 2 199 Kbps
Width: 720 pixels
Height: 304 pixels
Display aspect ratio: 2.35:1
Frame rate: 23.976 fps
Color space: YUV
Chroma subsampling: 4:2:0
Bit depth: 8 bits
Scan type: Progressive
Compression mode: Lossy
Bits/(Pixel*Frame): 0.419
Stream size: 1.22 GiB (92%)
Writing library: XviD 64

Audio
ID: 1
Format: AC-3
Format/Info: Audio Coding 3
Mode extension: CM (complete main)
Format settings, Endianness: Big
Codec ID: 2000
Duration: 1h 19mn
Bit rate mode: Constant
Bit rate: 192 Kbps
Channel(s): 2 channels
Channel positions: Front: L R
Sampling rate: 48.0 KHz
Bit depth: 16 bits
Compression mode: Lossy
Stream size: 109 MiB (8%)
Alignment: Aligned on interleaves
Interleave, duration: 64 ms (1.53 video frames)
Interleave, preload duration: 192 ms
Title: naturecalls

SOURCE:
720p wmv Digital VOD Rental

NOTES:
Here's the new comedy starring Patton Oswalt, Johnny Knoxville & Rob Riggle 
that hits limited theatres on Nov 9!

AXED! - The only name to trust for VOD/HDRiP!


Poster:




Screenshots:








ENJOY!